<?xml version="1.0" encoding="UTF-8"?>
<svg width="13px" height="16px" viewBox="0 0 13 16" version="1.1" xmlns="http://www.w3.org/2000/svg" xmlns:xlink="http://www.w3.org/1999/xlink">
    <title>Apple Black</title>
    <g id="Mocks" stroke="none" stroke-width="1" fill="none" fill-rule="evenodd">
        <g id="@Login-Screen-(Web)" transform="translate(-502.000000, -682.000000)" fill="#000000" fill-rule="nonzero">
            <g id="_Group_3" transform="translate(502.000000, 682.000000)">
                <path d="M12.5871183,5.45801706 C11.9150318,4.49687878 10.829687,3.90934342 9.65849663,3.87265096 C8.42630883,3.74314305 7.23175645,4.6109548 6.60385608,4.6109548 C5.96380435,4.6109548 4.99705307,3.88550918 3.95602152,3.90695667 C2.58629547,3.95126858 1.34029498,4.71217132 0.6738954,5.91127271 C-0.74522945,8.37154094 0.313310011,11.9873069 1.67271275,13.976002 C2.35285071,14.9498095 3.14773673,16.0375775 4.18782904,15.9990029 C5.20562186,15.9567324 5.58574773,15.3491268 6.81431068,15.3491268 C8.03147073,15.3491268 8.3881084,15.9990029 9.44930413,15.9744767 C10.5414432,15.9567251 11.2295427,14.9963415 11.8858182,14.0133129 C12.3744962,13.3194394 12.7505332,12.5525582 13,11.7410758 C11.7028704,11.1917225 10.8594426,9.91901891 10.8579286,8.50876377 C10.8739668,7.26227337 11.5265778,6.11089543 12.5871183,5.45801706 Z" id="_Path_"></path>
                <path d="M8.85352118,2.56475038 C9.44900079,1.84894615 9.74237099,0.928901076 9.6713304,0 C8.76156998,0.09568015 7.9212062,0.531065957 7.31768175,1.21940669 C6.72172909,1.89854734 6.41982085,2.78704512 6.47845358,3.68920469 C7.40041279,3.69871004 8.27579361,3.2842689 8.85352118,2.56475038 L8.85352118,2.56475038 Z" id="_Path_2"></path>
            </g>
        </g>
    </g>
</svg>