<svg xmlns="http://www.w3.org/2000/svg" width="360" height="428" fill="none" xmlns:v="https://vecta.io/nano"><path opacity=".05" fill-rule="evenodd" d="M323.605 272.838l-34.191 16.917c-11.948 5.968-25.679 6.68-37.998 2.677-7.695-2.5-14.829-6.834-20.646-12.874 0 0-1.326-1.357-1.78-2.006l-.456-.9c-1.454-4.208-3.075-8-4.932-11.592l-21.753-41.787 44.012-22.001c24.435-10.625 52.89-.658 64.965 22.583l22.851 44.022-10.072 4.961zm-158.993 77.689l-44.463 22.26-5.113-10.023-17.464-34.019c-10.003-19.307-5.955-43.154 9.832-57.992.024-.023 1.051-1.055 1.937-1.716l1.046-.543c4.212-1.414 7.999-2.976 11.584-4.768l42.282-21.167 22.705 43.807c10.979 24.295 1.124 52.4-22.346 64.161zM65.488 229.323c-12.636-4.106-22.941-12.798-29.002-24.47l-22.852-43.957 10.076-4.952 34.154-16.887c11.769-5.878 25.21-6.855 37.846-2.75 7.931 2.577 15.126 7.071 20.797 12.991 1.177 1.235 1.944 2.231 2.308 2.962 1.592 4.385 3.145 7.991 4.92 11.414l21.731 41.814-42.123 21.088c-11.768 5.879-25.214 6.854-37.855 2.747zM182.225 78.835l44.394-22.259 5.106 10.021 17.421 33.983c6.069 11.713 7.173 25.045 3.114 37.535-2.548 7.842-7.043 14.928-13.003 20.491-.076.073-1.923 1.663-2.279 1.896l-.829.392c-4.199 1.406-7.958 2.95-11.496 4.719l-42.149 21.188-21.746-41.897c-12.536-24.213-2.907-53.848 21.467-66.069zm110.438 81.046l-3.845-1.173 1.42-3.697c9.131-23.923 7.656-50.62-4.06-73.239L244.405.956l-81.42 40.788c-21.689 10.862-37.745 29.506-45.213 52.49l-1.654 5.522-3.729-1.417c-24.189-9.174-51.234-7.985-74.019 3.431l-81.371 40.67 41.885 80.857c11.156 21.539 30.134 37.569 53.433 45.139l5.599 1.655-1.408 3.691c-9.104 23.902-7.618 50.566 4.083 73.165l41.673 80.87 81.53-40.839c22.21-11.134 38.43-30.361 45.659-54.148l1.151-3.784 3.75 1.418c24.205 9.22 51.181 7.937 73.932-3.453l81.432-40.568-41.942-80.968c-11.439-22.063-31.033-38.298-55.113-45.593z" fill="url(#A)"/><defs><linearGradient id="A" x1="-43.349" y1="156.815" x2="258.019" y2="423.662" gradientUnits="userSpaceOnUse"><stop stop-color="#6d2451"/><stop offset="1" stop-color="#951c22"/></linearGradient></defs></svg>