<svg xmlns="http://www.w3.org/2000/svg" width="196" height="65" fill="none" xmlns:v="https://vecta.io/nano"><g clip-path="url(#A)"><path d="M179.846 0H15.912l-1.784.003-1.497.021c-1.094.013-2.186.109-3.265.287S7.243.837 6.268 1.33A10.49 10.49 0 0 0 3.63 3.245 10.17 10.17 0 0 0 1.71 5.88C1.215 6.853.871 7.896.692 8.972S.413 11.135.4 12.226l-.025 1.496v37.561L.4 52.781c.013 1.09.111 2.178.292 3.253s.523 2.121 1.018 3.095a10.09 10.09 0 0 0 1.92 2.623 10.22 10.22 0 0 0 2.638 1.915 10.94 10.94 0 0 0 3.098 1.025c1.08.177 2.171.273 3.265.287l1.497.017 1.784.003h163.934l1.767-.003 1.502-.017c1.092-.014 2.182-.11 3.259-.287a11.11 11.11 0 0 0 3.11-1.025c.975-.494 1.865-1.14 2.635-1.915.776-.768 1.426-1.654 1.926-2.623.492-.974.832-2.018 1.008-3.095a21.9 21.9 0 0 0 .303-3.253l.006-1.498.013-1.777V15.496l-.013-1.774-.006-1.496c-.02-1.09-.121-2.178-.303-3.253-.177-1.076-.517-2.119-1.008-3.093-1.006-1.955-2.601-3.546-4.561-4.55a11.05 11.05 0 0 0-3.11-1.019 21.31 21.31 0 0 0-3.259-.287l-1.502-.021L179.846 0h0z" fill="#a6a6a6"/><path d="M14.136 63.578c-.496 0-.981-.006-1.474-.017a20.72 20.72 0 0 1-3.046-.265 9.61 9.61 0 0 1-2.7-.89 8.81 8.81 0 0 1-2.276-1.652c-.675-.661-1.236-1.428-1.663-2.269a9.28 9.28 0 0 1-.885-2.693c-.168-1.007-.258-2.026-.271-3.047l-.024-1.484V13.722l.024-1.454c.012-1.019.103-2.036.27-3.042.156-.94.454-1.851.886-2.701.425-.841.984-1.608 1.654-2.272a9.07 9.07 0 0 1 2.285-1.662 9.51 9.51 0 0 1 2.694-.884c1.011-.165 2.032-.254 3.056-.267l1.47-.02h167.468l1.488.021c1.014.012 2.027.1 3.028.264.947.16 1.865.46 2.723.89a9.1 9.1 0 0 1 3.935 3.932c.425.844.719 1.748.873 2.68.169 1.014.263 2.039.283 3.067l.004 1.446.013 1.774v34.009l-.013 1.747-.006 1.511c-.019 1.009-.112 2.016-.278 3.012a9.31 9.31 0 0 1-.88 2.714c-.43.833-.988 1.593-1.655 2.252a8.82 8.82 0 0 1-2.281 1.662 9.57 9.57 0 0 1-2.718.893 20.47 20.47 0 0 1-3.046.265l-1.462.017-1.767.003-165.71-.003z" fill="#000"/><g fill="#fff"><path d="M40.737 32.989c.017-1.356.379-2.686 1.05-3.866a8.05 8.05 0 0 1 2.79-2.881c-.736-1.048-1.707-1.911-2.836-2.52a8.27 8.27 0 0 0-3.668-.986c-2.736-.286-5.389 1.633-6.784 1.633-1.421 0-3.568-1.604-5.88-1.557a8.68 8.68 0 0 0-4.23 1.259 8.65 8.65 0 0 0-3.059 3.174c-3.151 5.441-.801 13.438 2.218 17.836 1.51 2.154 3.276 4.559 5.586 4.474 2.26-.093 3.105-1.437 5.833-1.437 2.703 0 3.495 1.437 5.852 1.383 2.425-.039 3.954-2.163 5.411-4.337a17.81 17.81 0 0 0 2.474-5.025 7.79 7.79 0 0 1-3.458-2.86 7.76 7.76 0 0 1-1.3-4.288zm-4.451-13.146c1.322-1.583 1.974-3.618 1.816-5.672a8.09 8.09 0 0 0-5.227 2.697 7.53 7.53 0 0 0-1.477 2.546 7.52 7.52 0 0 0-.387 2.916 6.7 6.7 0 0 0 2.924-.639 6.68 6.68 0 0 0 2.351-1.848zm33.023 24.259h-7.713l-1.852 5.454h-3.267l7.306-20.179h3.394l7.306 20.179H71.16l-1.851-5.454zm-6.915-2.517h6.114l-3.014-8.852h-.084l-3.016 8.852zm27.867.616c0 4.572-2.454 7.509-6.157 7.509-.938.049-1.871-.167-2.692-.622s-1.497-1.132-1.95-1.952h-.07v7.287h-3.028V34.844h2.931v2.447h.056c.474-.816 1.161-1.49 1.989-1.948a5.24 5.24 0 0 1 2.709-.653c3.744 0 6.213 2.952 6.213 7.511zm-3.113 0c0-2.979-1.544-4.937-3.899-4.937-2.314 0-3.87 1.999-3.87 4.937 0 2.964 1.556 4.95 3.87 4.95 2.355 0 3.899-1.944 3.899-4.95zm19.351 0c0 4.572-2.453 7.509-6.157 7.509-.938.049-1.871-.167-2.692-.622s-1.497-1.132-1.95-1.952h-.07v7.287h-3.028V34.844h2.931v2.447h.056c.474-.816 1.161-1.49 1.989-1.948a5.24 5.24 0 0 1 2.71-.653c3.744 0 6.212 2.952 6.212 7.511zm-3.112 0c0-2.979-1.544-4.937-3.899-4.937-2.314 0-3.87 1.999-3.87 4.937 0 2.964 1.556 4.95 3.87 4.95 2.355 0 3.899-1.944 3.899-4.95h0zm13.845 1.733c.224 2.001 2.173 3.315 4.837 3.315 2.553 0 4.389-1.314 4.389-3.118 0-1.566-1.107-2.504-3.73-3.147l-2.622-.63c-3.716-.895-5.441-2.628-5.441-5.44 0-3.482 3.042-5.873 7.363-5.873 4.276 0 7.207 2.391 7.306 5.873h-3.057c-.183-2.014-1.852-3.229-4.292-3.229s-4.109 1.23-4.109 3.02c0 1.427 1.066 2.266 3.675 2.909l2.229.546c4.152.979 5.877 2.642 5.877 5.594 0 3.775-3.016 6.14-7.812 6.14-4.488 0-7.518-2.309-7.713-5.959h3.1zm18.961-12.572v3.482h2.805v2.392h-2.805v8.111c0 1.26.562 1.847 1.795 1.847.333-.006.665-.029.996-.07v2.377a8.39 8.39 0 0 1-1.682.14c-2.987 0-4.152-1.119-4.152-3.972v-8.433h-2.145v-2.392h2.145v-3.482h3.043zm4.43 10.839c0-4.629 2.734-7.538 6.997-7.538 4.278 0 6.999 2.909 6.999 7.538 0 4.642-2.707 7.538-6.999 7.538s-6.997-2.896-6.997-7.538zm10.911 0c0-3.175-1.46-5.05-3.914-5.05s-3.911 1.888-3.911 5.05c0 3.188 1.458 5.048 3.911 5.048s3.914-1.86 3.914-5.048h0zm5.582-7.357h2.888v2.504h.071a3.5 3.5 0 0 1 1.301-1.957c.646-.484 1.44-.732 2.247-.701a4.69 4.69 0 0 1 1.038.113v2.825a4.25 4.25 0 0 0-1.361-.182c-.44-.018-.878.06-1.286.227a3.04 3.04 0 0 0-1.072.742 3.03 3.03 0 0 0-.664 1.121 3.04 3.04 0 0 0-.134 1.295v8.726h-3.028V34.844zm21.507 10.391c-.407 2.671-3.015 4.504-6.352 4.504-4.292 0-6.956-2.867-6.956-7.468 0-4.615 2.678-7.608 6.828-7.608 4.082 0 6.649 2.796 6.649 7.257v1.035h-10.42v.182a3.83 3.83 0 0 0 .199 1.6 3.84 3.84 0 0 0 .842 1.377 3.85 3.85 0 0 0 1.335.909c.504.205 1.048.301 1.593.281a3.34 3.34 0 0 0 2.047-.471c.613-.373 1.091-.933 1.36-1.598h2.875zm-10.237-4.391h7.376a3.54 3.54 0 0 0-.991-2.656c-.34-.351-.749-.627-1.201-.813a3.56 3.56 0 0 0-1.427-.266 3.74 3.74 0 0 0-1.438.278 3.73 3.73 0 0 0-1.22.808c-.349.347-.627.76-.815 1.214a3.71 3.71 0 0 0-.284 1.433h0zM62.015 14.188a4.31 4.31 0 0 1 1.865.28 4.3 4.3 0 0 1 1.566 1.049c.438.461.767 1.013.965 1.616s.259 1.243.179 1.873c0 3.098-1.679 4.878-4.575 4.878h-3.512v-9.696h3.512zm-2.002 8.325h1.833c.454.027.908-.047 1.329-.217s.799-.431 1.106-.766a3.05 3.05 0 0 0 .669-1.165 3.04 3.04 0 0 0 .102-1.339 3.05 3.05 0 0 0-.112-1.331c-.136-.43-.365-.825-.671-1.156a3.06 3.06 0 0 0-1.102-.76 3.07 3.07 0 0 0-1.322-.219h-1.833v6.955zm8.283-2.291a3.46 3.46 0 0 1 .162-1.425 3.45 3.45 0 0 1 .726-1.237c.326-.357.723-.643 1.166-.839s.922-.296 1.406-.296.964.101 1.407.296.84.481 1.166.839a3.47 3.47 0 0 1 .726 1.237 3.46 3.46 0 0 1 .162 1.425 3.46 3.46 0 0 1-.16 1.426 3.47 3.47 0 0 1-.726 1.239c-.326.358-.723.644-1.167.84s-.923.297-1.408.297a3.48 3.48 0 0 1-1.408-.297c-.443-.196-.841-.482-1.167-.84a3.47 3.47 0 0 1-.726-1.239 3.46 3.46 0 0 1-.16-1.426zm5.431 0c0-1.586-.715-2.514-1.968-2.514s-1.967.927-1.967 2.514c0 1.599.708 2.519 1.967 2.519s1.968-.927 1.968-2.519h0zm10.69 3.662h-1.502l-1.517-5.389h-.115l-1.51 5.389h-1.488l-2.023-7.317h1.469l1.315 5.583h.108l1.509-5.583h1.389l1.509 5.583h.115l1.308-5.583h1.448l-2.015 7.317zm3.716-7.317h1.394v1.162h.108a2.19 2.19 0 0 1 .886-1.001 2.2 2.2 0 0 1 1.304-.302c.357-.027.715.027 1.049.157a2.39 2.39 0 0 1 .877.595 2.38 2.38 0 0 1 .532.915c.106.341.134.701.082 1.055v4.737h-1.448V19.51c0-1.176-.513-1.761-1.584-1.761a1.69 1.69 0 0 0-.709.121c-.225.091-.428.229-.594.405a1.68 1.68 0 0 0-.37.615 1.69 1.69 0 0 0-.079.713v4.281h-1.448v-7.317zm8.539-2.857h1.448v10.174h-1.448V13.71zm3.461 6.512a3.46 3.46 0 0 1 .162-1.425c.153-.458.401-.88.726-1.237a3.48 3.48 0 0 1 1.166-.839 3.49 3.49 0 0 1 2.814 0 3.48 3.48 0 0 1 1.166.839c.325.357.573.779.726 1.237a3.46 3.46 0 0 1 .162 1.425c.047.481-.008.967-.16 1.426a3.47 3.47 0 0 1-.726 1.239c-.326.358-.723.644-1.167.84s-.923.297-1.408.297a3.48 3.48 0 0 1-1.408-.297c-.443-.196-.841-.482-1.167-.84a3.47 3.47 0 0 1-.726-1.239c-.152-.459-.207-.945-.16-1.426zm5.432 0c0-1.586-.715-2.514-1.969-2.514-1.259 0-1.967.927-1.967 2.514 0 1.599.708 2.519 1.967 2.519s1.969-.927 1.969-2.519h0zm3.014 1.593c0-1.317.984-2.076 2.73-2.184l1.987-.114v-.632c0-.773-.512-1.209-1.502-1.209-.808 0-1.369.296-1.529.813h-1.402c.148-1.257 1.333-2.063 2.998-2.063 1.839 0 2.877.913 2.877 2.459v5h-1.394v-1.028h-.115c-.232.369-.559.67-.946.872s-.821.297-1.258.277a2.23 2.23 0 0 1-.914-.096c-.295-.095-.565-.251-.796-.458a2.22 2.22 0 0 1-.542-.74 2.23 2.23 0 0 1-.194-.896zm4.717-.625v-.612l-1.792.114c-1.01.067-1.469.41-1.469 1.055 0 .659.573 1.042 1.361 1.042a1.75 1.75 0 0 0 .686-.068 1.73 1.73 0 0 0 .604-.33 1.72 1.72 0 0 0 .61-1.201zm3.345-.968c0-2.312 1.192-3.777 3.046-3.777a2.42 2.42 0 0 1 1.312.316 2.41 2.41 0 0 1 .938.968h.109V13.71h1.448v10.174h-1.388v-1.156h-.115a2.54 2.54 0 0 1-.973.959c-.406.225-.867.335-1.331.318-1.867 0-3.046-1.465-3.046-3.782zm1.496 0c0 1.552.734 2.486 1.961 2.486 1.22 0 1.975-.947 1.975-2.48 0-1.525-.763-2.486-1.975-2.486-1.219 0-1.961.94-1.961 2.48h0zm11.348 0a3.46 3.46 0 0 1 .888-2.662 3.48 3.48 0 0 1 1.166-.839 3.49 3.49 0 0 1 1.407-.296c.485 0 .963.101 1.406.296a3.48 3.48 0 0 1 1.166.839 3.46 3.46 0 0 1 .888 2.662 3.45 3.45 0 0 1-.16 1.426c-.152.459-.4.881-.726 1.239a3.47 3.47 0 0 1-1.166.84c-.444.196-.923.297-1.408.297a3.48 3.48 0 0 1-1.408-.297c-.443-.196-.841-.482-1.167-.84a3.47 3.47 0 0 1-.726-1.239c-.152-.459-.207-.945-.16-1.426zm5.432 0c0-1.586-.715-2.514-1.969-2.514s-1.967.927-1.967 2.514c0 1.599.708 2.519 1.967 2.519 1.254 0 1.969-.927 1.969-2.519zm3.432-3.655h1.394v1.162h.108a2.2 2.2 0 0 1 2.19-1.304 2.39 2.39 0 0 1 1.926.752 2.37 2.37 0 0 1 .532.915c.106.341.134.701.082 1.055v4.737h-1.448V19.51c0-1.176-.513-1.761-1.584-1.761a1.69 1.69 0 0 0-.709.121 1.68 1.68 0 0 0-.594.405c-.166.176-.293.386-.37.615a1.69 1.69 0 0 0-.079.713v4.281h-1.448v-7.317zm14.415-1.822V16.6h1.59v1.216h-1.59v3.763c0 .766.316 1.102 1.037 1.102a4.85 4.85 0 0 0 .553-.033v1.203c-.261.046-.524.071-.788.074-1.611 0-2.252-.565-2.252-1.976v-4.132h-1.165V16.6h1.165v-1.855h1.45zm3.568-1.035h1.435v4.032h.115a2.25 2.25 0 0 1 .911-1.008 2.26 2.26 0 0 1 1.326-.303c.355-.019.71.04 1.04.173a2.42 2.42 0 0 1 .867.598 2.41 2.41 0 0 1 .62 1.957v4.724h-1.45v-4.368c0-1.169-.545-1.761-1.569-1.761-.249-.02-.499.014-.733.1a1.72 1.72 0 0 0-.623.399 1.71 1.71 0 0 0-.396.624c-.085.234-.117.484-.095.732v4.274h-1.448V13.71zm14.758 8.198a2.97 2.97 0 0 1-1.204 1.634 2.99 2.99 0 0 1-1.976.483 3.34 3.34 0 0 1-1.408-.271 3.32 3.32 0 0 1-1.163-.835 3.31 3.31 0 0 1-.704-1.246 3.32 3.32 0 0 1-.114-1.425c-.065-.479-.025-.966.116-1.429a3.37 3.37 0 0 1 .701-1.252 3.38 3.38 0 0 1 1.158-.849 3.39 3.39 0 0 1 1.408-.293c2.042 0 3.273 1.391 3.273 3.689v.504h-5.181v.081a1.93 1.93 0 0 0 .099.794c.088.255.229.488.413.686a1.92 1.92 0 0 0 .656.46 1.94 1.94 0 0 0 .786.157 1.76 1.76 0 0 0 1.746-.887h1.394zm-5.094-2.358h3.706c.018-.246-.015-.492-.098-.724a1.77 1.77 0 0 0-.988-1.037c-.228-.095-.473-.14-.72-.135a1.89 1.89 0 0 0-.731.138c-.232.094-.443.234-.62.41s-.317.387-.411.618-.141.479-.138.729h0z"/></g></g><defs><clipPath id="A"><path fill="#fff" transform="translate(.375)" d="M0 0h195v65H0z"/></clipPath></defs></svg>