<svg xmlns="http://www.w3.org/2000/svg" width="14" height="16" xmlns:v="https://vecta.io/nano"><defs><linearGradient x1="60.489721%" y1="4.94673679%" x2="27.6113351%" y2="71.9326429%" id="A"><stop stop-color="#00a0ff" offset="0%"/><stop stop-color="#00a1ff" offset=".7%"/><stop stop-color="#00beff" offset="26%"/><stop stop-color="#00d2ff" offset="51.2%"/><stop stop-color="#00dfff" offset="76%"/><stop stop-color="#00e3ff" offset="100%"/></linearGradient><linearGradient x1="107.594672%" y1="50.0071383%" x2="-130.515834%" y2="50.0071383%" id="B"><stop stop-color="#ffe000" offset="0%"/><stop stop-color="#ffbd00" offset="40.9%"/><stop stop-color="orange" offset="77.5%"/><stop stop-color="#ff9c00" offset="100%"/></linearGradient><linearGradient x1="86.245051%" y1="29.9116531%" x2="-50.1231709%" y2="140.47019%" id="C"><stop stop-color="#ff3a44" offset="0%"/><stop stop-color="#c31162" offset="100%"/></linearGradient><linearGradient x1="-18.8049506%" y1="-15.0218998%" x2="42.0874672%" y2="34.3181217%" id="D"><stop stop-color="#32a071" offset="0%"/><stop stop-color="#2da771" offset="6.9%"/><stop stop-color="#15cf74" offset="47.6%"/><stop stop-color="#06e775" offset="80.1%"/><stop stop-color="#00f076" offset="100%"/></linearGradient></defs><g fill-rule="evenodd"><path d="M.276.245C.101.439 0 .736 0 1.123v13.752c0 .387.101.684.283.871l.048.041 7.513-7.705v-.173L.324.204.276.245z" fill="url(#A)"/><path d="M10.343 10.66L7.837 8.089v-.18l2.507-2.571.054.034L13.363 7.1c.849.491.849 1.299 0 1.797l-2.965 1.728c-.001 0-.055.034-.055.034h0z" fill="url(#B)"/><path d="M10.397 10.625l-2.56-2.626-7.561 7.754c.276.304.741.339 1.26.041l8.861-5.169" fill="url(#C)"/><path d="M10.397 5.373L1.537.211C1.018-.093.552-.052.276.252l7.56 7.747 2.561-2.626z" fill="url(#D)"/><g fill="#000" fill-rule="nonzero"><path d="M10.343 10.57l-8.8 5.128c-.492.29-.93.27-1.213.007l-.048.049.048.041c.283.262.721.283 1.213-.007l8.861-5.162-.061-.055h0z" opacity=".2"/><path d="M13.362 8.807l-3.026 1.762.054.055 2.965-1.728c.425-.249.633-.573.633-.898-.027.298-.243.581-.627.809h0z" opacity=".12"/></g><path d="M1.537.301l11.826 6.89c.384.221.6.511.633.809 0-.324-.209-.65-.633-.898L1.537.211C.688-.287 0 .128 0 1.123v.09C0 .218.688-.19 1.537.301z" fill="#fff" opacity=".25"/></g></svg>